{"title":"Tape [2001] DVDRip","uid":4737640,"size":731316077,"categoryP":"video","categoryS":"movies","magnet":"?xt=urn:btih:0feef9d123ae42607f150bc004c2126bea2d37dd&amp;dn=Tape+%5B2001%5D+DVDRip&amp;tr=udp%3A%2F%2Ftracker.openbittorrent.com%3A80&amp;tr=udp%3A%2F%2Fopen.demonii.com%3A1337&amp;tr=udp%3A%2F%2Ftracker.coppersurfer.tk%3A6969&amp;tr=udp%3A%2F%2Fexodus.desync.com%3A6969","seeders":8,"leechers":1,"uploader":"akhiugo","files":-1,"time":1235409913,"description":"Based on a three-character, one-act play, Tape is set entirely in Room 19 of a seedy motel in Lansing, Michigan rented by Vince, an ill-tempered, outgoing party animal/drug dealer who's visited by his old high school friend Jon, a documentary filmmaker, where they pass the time reminiscing about the good old times which take a turn when Vince records their conversation with Jon admitting to a possible date-rape of Vince's old girlfriend Amy, who later shows up and opens up a new wave of talk and arguments about whose story is fact or fabricated.\n\nCast:\n\nEthan Hawke         ... Vince\nRobert Sean Leonard ... Jon Salter\nUma Thurman         ... Amy Randall\n\n\nIMDB Rating 7.3/10 (7,253 Votes)\n\n\nGeneral\nComplete name                    : Tape.(2001).avi\nFormat                           : AVI\nFormat/Info                      : Audio Video Interleave\nFormat settings                  : rec\nFile size                        : 697 MiB\nDuration                         : 1h 26mn\nOverall bit rate                 : 1 129 Kbps\n\nVideo\nFormat                           : MPEG-4 Visual\nFormat profile                   : Simple@L3\nFormat settings, BVOP            : No\nFormat settings, QPel            : No\nFormat settings, GMC             : No warppoints\nFormat settings, Matrix          : Default\nCodec ID                         : XVID\nCodec ID/Hint                    : XviD\nDuration                         : 1h 26mn\nBit rate                         : 989 Kbps\nWidth                            : 640 pixels\nHeight                           : 336 pixels\nDisplay aspect ratio             : 1.905\nFrame rate                       : 23.976 fps\nResolution                       : 24 bits\nColorimetry                      : 4:2:0\nScan type                        : Progressive\nBits/(Pixel*Frame)               : 0.192\nStream size                      : 611 MiB (88%)\nWriting library                  : XviD 0.0.09 (UTC 2003-03-25)\n\nAudio\nFormat                           : MPEG Audio\nFormat version                   : Version 1\nFormat profile                   : Layer 3\nCodec ID                         : 55\nCodec ID/Hint                    : MP3\nDuration                         : 1h 26mn\nBit rate mode                    : Variable\nBit rate                         : 127 Kbps\nNominal bit rate                 : 128 Kbps\nChannel(s)                       : 2 channels\nSampling rate                    : 48.0 KHz\nResolution                       : 16 bits\nStream size                      : 78.6 MiB (11%)\nAlignment                        : Aligned on interleaves\nInterleave, duration             : 24 ms (0.58 video frame)\nInterleave, preload duration     : 455 ms\nWriting library                  : LAME3.93 \nEncoding settings                : ABR\n\n\nPlease help your fellow pirates by seeding after download!","torrent":{"xt":"urn:btih:0feef9d123ae42607f150bc004c2126bea2d37dd","amp;dn":"Tape+%5B2001%5D+DVDRip","amp;tr":["udp%3A%2F%2Ftracker.openbittorrent.com%3A80","udp%3A%2F%2Fopen.demonii.com%3A1337","udp%3A%2F%2Ftracker.coppersurfer.tk%3A6969","udp%3A%2F%2Fexodus.desync.com%3A6969"],"infoHash":"0feef9d123ae42607f150bc004c2126bea2d37dd","infoHashBuffer":{"type":"Buffer","data":[15,238,249,209,35,174,66,96,127,21,11,192,4,194,18,107,234,45,55,221]},"announce":[],"urlList":[]}}